<svg clip-rule="evenodd" fill-rule="evenodd" stroke-linejoin="round" stroke-miterlimit="2" viewBox="0 0 100 100" xmlns="http://www.w3.org/2000/svg"><circle cx="50" cy="50" fill="#ef2b60" r="50"/><g fill="#fff" fill-rule="nonzero" transform="matrix(.0250996 0 0 -.0250996 -4.02942 105.321)"><path d="m2042 3531c-144-63-214-161-215-302 0-101 24-165 90-232 73-76 129-99 235-99 107 0 163 23 236 99 65 67 90 131 90 232 0 125-69 232-184 288-69 34-191 40-252 14z"/><path d="m1179 2784c-108-32-151-169-80-254 42-50 75-61 215-72 333-28 478-42 495-49 17-6 18-30 18-294v-287l-128-381c-139-416-146-452-103-516 33-47 76-70 135-70 54 0 106 26 132 65 8 13 74 201 147 418 72 217 136 394 143 394 6 0 70-177 142-394 73-217 139-405 147-418 26-39 78-65 132-65 59 0 102 23 135 70 43 63 35 101-104 516l-127 381v287c0 264 1 288 18 294 10 4 78 12 150 17s169 14 215 20 124 13 173 17c99 7 132 20 171 66 55 65 46 166-20 221-49 40-84 46-204 32-54-6-179-18-277-26-98-9-259-23-357-32-181-16-346-11-572 17-44 5-122 12-174 15-52 4-132 11-178 16-138 16-219 20-244 12z"/></g></svg>